<?xml version="1.0" standalone="no"?>
<!DOCTYPE svg PUBLIC "-//W3C//DTD SVG 20010904//EN"
 "http://www.w3.org/TR/2001/REC-SVG-20010904/DTD/svg10.dtd">
<svg version="1.0" xmlns="http://www.w3.org/2000/svg"
 width="500.000000pt" height="500.000000pt" viewBox="0 0 500.000000 500.000000"
 preserveAspectRatio="xMidYMid meet">

<g transform="translate(0.000000,500.000000) scale(0.100000,-0.100000)"
fill="#000000" stroke="none">
<path d="M1722 4897 c-50 -16 -126 -89 -150 -144 -11 -26 -34 -122 -52 -213
-17 -91 -46 -244 -65 -340 -31 -159 -159 -822 -205 -1065 -11 -55 -45 -230
-77 -390 -69 -351 -73 -414 -28 -494 30 -55 82 -101 143 -126 43 -19 308 -72
832 -169 74 -14 263 -50 420 -80 695 -133 717 -135 806 -80 58 35 107 103 127
177 8 28 27 120 42 202 23 134 151 806 235 1240 17 88 47 243 66 345 19 102
48 254 64 338 39 199 39 241 -1 320 -32 65 -78 109 -142 135 -21 9 -124 32
-230 52 -163 31 -505 96 -1112 211 -122 24 -225 43 -425 79 -96 17 -199 18
-248 2z m278 -108 c58 -11 137 -26 175 -34 39 -8 122 -23 185 -35 63 -12 147
-27 185 -35 39 -8 144 -28 235 -45 91 -17 246 -46 345 -65 99 -18 268 -50 375
-70 299 -55 336 -94 295 -305 -25 -133 -164 -863 -186 -980 -10 -58 -39 -204
-63 -325 -50 -246 -124 -631 -156 -804 -24 -129 -36 -157 -80 -194 -47 -40
-88 -43 -224 -17 -67 12 -164 31 -216 41 -52 9 -153 29 -225 42 -127 25 -1000
189 -1202 227 -131 24 -169 42 -204 99 -34 52 -37 99 -14 194 8 34 51 251 95
482 44 231 89 465 100 520 11 55 42 222 70 370 28 149 57 302 66 340 9 39 19
93 24 120 32 184 73 383 85 404 18 35 53 67 95 86 40 17 74 15 240 -16z"/>
<path d="M1892 4604 c-58 -29 -96 -69 -123 -130 -21 -46 -81 -340 -253 -1234
-19 -102 -54 -279 -77 -395 -59 -297 -56 -361 21 -449 41 -46 107 -80 185 -95
33 -6 76 -16 95 -21 19 -5 98 -21 175 -36 77 -14 205 -39 285 -54 80 -16 242
-47 360 -70 118 -23 259 -50 312 -61 136 -27 202 -25 266 7 58 29 96 69 124
130 16 38 61 258 163 804 20 107 43 227 51 265 7 39 25 129 38 200 14 72 46
237 71 368 49 261 53 301 30 368 -38 111 -111 155 -320 194 -77 14 -187 34
-245 45 -58 11 -199 38 -315 59 -115 22 -316 60 -446 85 -278 54 -325 56 -397
20z m203 -89 c115 -20 203 -37 535 -100 162 -31 379 -72 482 -91 282 -52 313
-59 347 -83 36 -26 71 -88 71 -127 0 -14 -21 -133 -46 -263 -25 -130 -54 -281
-64 -336 -10 -55 -46 -242 -80 -415 -33 -173 -74 -385 -91 -470 -16 -85 -34
-171 -38 -190 -5 -19 -14 -67 -21 -105 -20 -128 -74 -185 -175 -185 -27 0
-176 25 -330 55 -154 30 -329 64 -390 76 -60 11 -141 27 -180 34 -38 8 -122
24 -185 35 -347 64 -371 72 -411 136 -29 47 -24 111 31 389 22 116 57 293 76
395 20 102 51 262 69 355 19 94 62 309 95 479 34 171 67 321 75 335 26 51 81
87 135 90 8 1 51 -6 95 -14z"/>
<path d="M2557 4141 c-18 -16 -39 -42 -47 -58 -8 -15 -53 -86 -100 -157 l-85
-128 -201 7 c-174 6 -206 5 -232 -9 -44 -23 -62 -54 -62 -108 0 -51 22 -88
168 -287 34 -47 62 -91 62 -99 0 -8 -27 -96 -60 -196 -33 -100 -60 -195 -60
-210 0 -64 54 -116 122 -116 18 0 105 28 193 61 88 34 169 63 180 66 13 3 31
-6 50 -25 51 -49 240 -199 273 -216 41 -21 80 -20 118 3 57 35 64 66 64 285
l0 196 160 106 c105 68 168 116 180 137 38 61 18 152 -38 181 -15 7 -101 37
-192 66 -91 29 -170 58 -176 64 -6 6 -32 94 -58 195 -26 102 -54 197 -62 212
-22 43 -52 59 -111 59 -44 0 -58 -5 -86 -29z m164 -283 c34 -129 61 -210 74
-225 13 -15 82 -43 205 -84 102 -34 189 -66 194 -70 16 -14 -21 -45 -181 -151
-85 -56 -161 -111 -169 -122 -11 -16 -14 -65 -14 -233 0 -187 -2 -213 -16
-213 -8 0 -55 33 -102 73 -48 40 -123 102 -166 137 l-80 64 -85 -31 c-47 -17
-139 -50 -204 -73 -64 -24 -120 -40 -123 -37 -6 6 3 38 72 263 24 78 44 152
44 163 0 12 -52 95 -116 184 -120 166 -133 190 -115 201 5 4 101 2 212 -3 136
-7 208 -7 221 0 10 5 44 49 75 97 93 145 176 267 187 274 21 14 34 -18 87
-214z"/>
<path d="M2403 830 c-95 -20 -180 -87 -224 -176 -33 -66 -34 -187 -2 -255 76
-167 299 -244 454 -157 54 30 64 53 39 88 -25 35 -47 37 -100 10 -79 -40 -186
-19 -243 50 -57 67 -60 183 -8 254 57 80 148 103 255 65 65 -22 66 -22 87 -3
52 47 45 73 -28 106 -48 21 -170 31 -230 18z"/>
<path d="M3023 830 c-94 -20 -173 -81 -220 -173 -23 -43 -27 -65 -27 -132 -1
-68 3 -89 27 -137 33 -67 90 -121 164 -155 96 -44 266 -29 354 30 l34 23 3
114 c4 173 14 161 -126 158 l-117 -3 -3 -36 c-4 -45 10 -57 73 -61 l50 -3 0
-49 c0 -46 -3 -51 -33 -69 -39 -23 -145 -27 -183 -7 -35 18 -78 61 -97 95 -21
40 -21 159 0 200 46 88 162 127 263 89 66 -26 84 -27 110 -10 51 34 18 93 -64
116 -53 15 -160 20 -208 10z"/>
<path d="M1616 814 c-9 -8 -16 -26 -16 -39 0 -41 25 -55 95 -55 103 0 95 20
95 -244 0 -167 3 -235 12 -244 16 -16 80 -16 96 0 9 9 12 77 12 244 0 264 -8
244 93 244 77 0 91 9 91 55 0 21 -6 40 -14 46 -8 5 -113 9 -232 9 -184 0 -219
-2 -232 -16z"/>
</g>
</svg>
